<?xml version="1.0" encoding="utf-8"?>
<!-- Generator: Adobe Illustrator 15.1.0, SVG Export Plug-In . SVG Version: 6.00 Build 0)  -->
<!DOCTYPE svg PUBLIC "-//W3C//DTD SVG 1.1//EN" "http://www.w3.org/Graphics/SVG/1.1/DTD/svg11.dtd">
<svg version="1.1" id="Layer_1" xmlns="http://www.w3.org/2000/svg" xmlns:xlink="http://www.w3.org/1999/xlink" x="0px" y="0px"
	 width="28.25px" height="29px" viewBox="0 0 28.25 29" enable-background="new 0 0 28.25 29" xml:space="preserve">
<g>
	<g>
		<path d="M14.597,2.56C14.2,1.8,13.561,1.806,13.174,2.57L1.621,25.486c-0.384,0.765,0.002,1.34,0.859,1.34h23.304
			c0.856,0,1.231-0.569,0.836-1.328L14.597,2.56z"/>
		
			<path fill="none" stroke="#000000" stroke-width="0.3605" stroke-linecap="round" stroke-linejoin="bevel" stroke-miterlimit="10" d="
			M14.597,2.56C14.2,1.8,13.561,1.806,13.174,2.57L1.621,25.576c-0.384,0.767,0.002,1.431,0.859,1.431h23.304
			c0.856,0,1.231-0.66,0.836-1.418L14.597,2.56z"/>
	</g>
	<path fill="#FFFFFF" d="M13.84,20.399L12.667,9.722c-0.064-0.551-0.097-0.854-0.097-0.909c0-0.606,0.137-1.063,0.414-1.371
		c0.274-0.308,0.617-0.461,1.024-0.461c0.39,0,0.724,0.154,0.999,0.461c0.276,0.307,0.414,0.751,0.414,1.335
		c0,0.175-0.028,0.491-0.084,0.945l-1.185,10.677c-0.008,0.065-0.032,0.115-0.073,0.156l-0.083,0.046
		c-0.04,0-0.071-0.015-0.096-0.046C13.869,20.515,13.848,20.463,13.84,20.399z M13.949,22.41c0.311,0,0.575,0.125,0.79,0.376
		c0.216,0.252,0.323,0.602,0.323,1.048c0,0.447-0.112,0.799-0.336,1.053c-0.224,0.255-0.487,0.384-0.791,0.384
		c-0.294,0-0.545-0.114-0.748-0.342c-0.203-0.228-0.305-0.564-0.305-1.01c0-0.503,0.104-0.879,0.311-1.133
		C13.401,22.535,13.653,22.41,13.949,22.41z"/>
</g>
</svg>
