<?xml version="1.0" encoding="utf-8"?>
<!-- Generator: Adobe Illustrator 15.1.0, SVG Export Plug-In . SVG Version: 6.00 Build 0)  -->
<!DOCTYPE svg PUBLIC "-//W3C//DTD SVG 1.1//EN" "http://www.w3.org/Graphics/SVG/1.1/DTD/svg11.dtd">
<svg version="1.1" id="Layer_1" xmlns="http://www.w3.org/2000/svg" xmlns:xlink="http://www.w3.org/1999/xlink" x="0px" y="0px"
	 width="30.667px" height="31px" viewBox="0 0 30.667 31" enable-background="new 0 0 30.667 31" xml:space="preserve">
<g>
	<g>
		<path d="M15.803,3.524c-0.396-0.758-1.035-0.752-1.418,0.012L2.848,26.562c-0.385,0.766,0,1.479,0.856,1.479h23.272
			c0.854,0,1.23-0.711,0.834-1.47L15.803,3.524z"/>
		
			<path fill="none" stroke="#000000" stroke-width="0.36" stroke-linecap="round" stroke-linejoin="bevel" stroke-miterlimit="10" d="
			M15.803,3.524c-0.396-0.758-1.035-0.752-1.418,0.012L2.848,26.472c-0.385,0.764,0,1.389,0.856,1.389h23.272
			c0.854,0,1.23-0.619,0.834-1.377L15.803,3.524z"/>
	</g>
	<polygon stroke="#FFFFFF" stroke-width="1.44" stroke-linejoin="round" stroke-miterlimit="10" points="15.17,8.149 6.615,25.161 
		24.067,25.161 	"/>
</g>
</svg>
